<svg xmlns="http://www.w3.org/2000/svg" width="657.298" height="458.738" viewBox="0 0 657.298 458.738">
  <g id="undraw_online_art_bgb4" transform="translate(0 0)">
    <path id="Pfad_29" data-name="Pfad 29" d="M618.769,110.69v357.7a252.273,252.273,0,0,0-92.607-106.823c-.428-.279-.861-.557-1.295-.825a249.953,249.953,0,0,0-134.61-39.079H124.09V110.69Z" transform="translate(-111.71 -106.812)" fill="#1e1e24"/>
    <path id="Pfad_30" data-name="Pfad 30" d="M600.14,615.983v-19.37c-39.651-86.579-127.056-146.727-228.511-146.727H105.462v166.1Z" transform="translate(-105.462 -220.593)" fill="#00cbff"/>
    <path id="Pfad_31" data-name="Pfad 31" d="M184.041,163.236H169.354V148.549h14.687Zm-12.331-2.356h9.974v-9.974h-9.974Z" transform="translate(-126.894 -119.512)" fill="#f2f2f2"/>
    <path id="Pfad_32" data-name="Pfad 32" d="M478.655,603.628H143.883V539.15H478.655ZM144.915,602.6H477.624V540.181H144.915Z" transform="translate(-118.35 -250.536)" fill="#f2f2f2"/>
    <rect id="Rechteck_30" data-name="Rechteck 30" width="26.823" height="26.823" transform="translate(36.366 314.148)" opacity="0.1"/>
    <rect id="Rechteck_31" data-name="Rechteck 31" width="220.258" height="6.706" transform="translate(114.256 300.736)" fill="#f2f2f2"/>
    <rect id="Rechteck_32" data-name="Rechteck 32" width="220.258" height="6.706" transform="translate(114.256 317.759)" fill="#f2f2f2"/>
    <rect id="Rechteck_33" data-name="Rechteck 33" width="220.258" height="6.706" transform="translate(114.256 334.781)" fill="#f2f2f2"/>
    <path id="Pfad_33" data-name="Pfad 33" d="M200.673,597.88H159.407V556.614h41.266Zm-40.234-1.032h39.2v-39.2h-39.2Z" transform="translate(-123.557 -256.394)" fill="#f2f2f2"/>
    <path id="Pfad_34" data-name="Pfad 34" d="M703.191,598.646a22.181,22.181,0,1,1,22.181-22.181A22.181,22.181,0,0,1,703.191,598.646Zm0-43.329a21.149,21.149,0,1,0,21.149,21.149,21.149,21.149,0,0,0-21.149-21.149Z" transform="translate(-298.525 -255.613)" fill="#f2f2f2"/>
    <path id="Pfad_35" data-name="Pfad 35" d="M616,463.583l-.729-.73-13.563,13.563-13.562-13.563-.73.73,13.563,13.562L589.225,488.9l.729.73,11.757-11.757,11.757,11.757.73-.73-11.757-11.757Z" transform="translate(-197.045 -155.26)" fill="#f2f2f2"/>
    <path id="Pfad_36" data-name="Pfad 36" d="M547.628,124.708,234.341,177.715l25.152,148.651h1.042l-25.007-147.81L546.782,125.9,586.6,361.256l-24.749,4.189c.433.268.867.547,1.295.825l24.646-4.168Z" transform="translate(-148.693 -111.515)" fill="none" stroke="#f2f2f2" stroke-miterlimit="10" stroke-width="2"/>
    <path id="Pfad_37" data-name="Pfad 37" d="M476.919,307.853c10.364,31.192,6.724,60.48,6.724,60.48s-20.444-21.285-30.809-52.478-6.724-60.48-6.724-60.48S466.555,276.66,476.919,307.853Z" transform="translate(-219.522 -155.346)" fill="#00cbff"/>
    <path id="Pfad_38" data-name="Pfad 38" d="M509.313,307.853c-10.364,31.192-6.724,60.48-6.724,60.48s20.444-21.285,30.809-52.478,6.724-60.48,6.724-60.48S519.677,276.66,509.313,307.853Z" transform="translate(-238.467 -155.346)" fill="#00cbff"/>
    <path id="Pfad_39" data-name="Pfad 39" d="M506.48,304.949c.695,32.862-11.429,59.77-11.429,59.77s-13.25-26.372-13.944-59.234,11.429-59.77,11.429-59.77S505.785,272.088,506.48,304.949Z" transform="translate(-231.459 -152.106)" fill="#f2f2f2"/>
    <circle id="Ellipse_27" data-name="Ellipse 27" cx="3.217" cy="3.217" r="3.217" transform="translate(259.118 120.584)" fill="#00cbff"/>
    <circle id="Ellipse_28" data-name="Ellipse 28" cx="1.787" cy="1.787" r="1.787" transform="translate(254.292 147.75)" fill="#00cbff"/>
    <circle id="Ellipse_29" data-name="Ellipse 29" cx="1.787" cy="1.787" r="1.787" transform="translate(232.488 130.057)" fill="#3f3d56"/>
    <circle id="Ellipse_30" data-name="Ellipse 30" cx="1.787" cy="1.787" r="1.787" transform="translate(295.577 112.721)" fill="#3f3d56"/>
    <circle id="Ellipse_31" data-name="Ellipse 31" cx="1.787" cy="1.787" r="1.787" transform="translate(241.782 146.857)" fill="#3f3d56"/>
    <circle id="Ellipse_32" data-name="Ellipse 32" cx="1.787" cy="1.787" r="1.787" transform="translate(279.313 136.491)" fill="#3f3d56"/>
    <circle id="Ellipse_33" data-name="Ellipse 33" cx="1.787" cy="1.787" r="1.787" transform="translate(242.853 173.129)" fill="#3f3d56"/>
    <circle id="Ellipse_34" data-name="Ellipse 34" cx="1.787" cy="1.787" r="1.787" transform="translate(281.101 162.942)" fill="#3f3d56"/>
    <circle id="Ellipse_35" data-name="Ellipse 35" cx="1.787" cy="1.787" r="1.787" transform="translate(263.764 164.729)" fill="#00cbff"/>
    <path id="Pfad_40" data-name="Pfad 40" d="M1065.151,706.256s1.994,19.937,5.316,26.582c0,0-19.937,4.652-20.6.665s.665-19.272.665-19.272Z" transform="translate(-422.192 -306.59)" fill="#a0616a"/>
    <path id="Pfad_41" data-name="Pfad 41" d="M915.178,721.256s1.994,19.937,5.316,26.582c0,0-19.937,4.652-20.6.665s1.329-25.253,1.329-25.253Z" transform="translate(-371.901 -311.622)" fill="#a0616a"/>
    <path id="Pfad_42" data-name="Pfad 42" d="M1037.53,302.116s13.956,46.519,5.317,55.158-29.241,37.88-29.241,37.88l-6.646-11.3s23.26-32.563,20.6-39.874-9.3-27.247-9.3-27.247S1029.555,299.457,1037.53,302.116Z" transform="translate(-407.862 -170.931)" fill="#a0616a"/>
    <circle id="Ellipse_36" data-name="Ellipse 36" cx="26.582" cy="26.582" r="26.582" transform="translate(537.96 21.532)" fill="#a0616a"/>
    <path id="Pfad_43" data-name="Pfad 43" d="M979.351,182.256s10.633,28.576,16.614,31.234,16.614,15.285,16.614,15.285S1013.908,262,1006.6,262s-47.848-47.184-47.848-47.184,1.994-9.3-1.994-14.62S979.351,182.256,979.351,182.256Z" transform="translate(-390.884 -130.819)" fill="#a0616a"/>
    <path id="Pfad_44" data-name="Pfad 44" d="M961.932,367.851v7.975s11.962,20.6,12.627,57.817L980.54,500.1s31.234,50.506,26.582,79.747l.665,11.3-15.949,5.316-5.317-9.3s-5.316-.665-9.968-15.285l-28.576-64.462-17.279-52.5-10.633,68.45s4.652,63.133-7.31,65.127v9.968l-21.931.665v-9.3s-7.31,2.658-6.646-8.639,0-60.475,0-60.475l-3.987-84.4s-8.831-39.536-4.083-47.347l26.014-43.7Z" transform="translate(-363.498 -185.496)" fill="#1e1e24"/>
    <path id="Pfad_45" data-name="Pfad 45" d="M1056.464,741.682s6.646-2.658,7.975.665,10.633,21.266,0,22.595-17.278,0-17.278,0-8.639-1.329-11.962-.665-16.614-1.329-15.285-11.3,9.968-8.639,9.968-8.639,8.639-5.316,8.639-7.31,3.323,3.323,3.323,3.323S1044.5,745,1056.464,741.682Z" transform="translate(-412.175 -316.763)" fill="#1e1e24"/>
    <path id="Pfad_46" data-name="Pfad 46" d="M906.466,756.682s6.646-2.658,7.975.665,10.633,21.266,0,22.595-17.279,0-17.279,0-8.639-1.329-11.962-.665-16.614-1.329-15.285-11.3,9.968-8.639,9.968-8.639,8.639-5.316,8.639-7.31,3.323,3.323,3.323,3.323S894.5,760,906.466,756.682Z" transform="translate(-361.86 -321.794)" fill="#1e1e24"/>
    <path id="Pfad_47" data-name="Pfad 47" d="M984.061,263.418s22.595-5.164,0-33.816c0,0,17.943,5.24,19.937,19.2s2.658,31.234,2.658,31.234-11.3-3.323-17.279,11.962-14.62,23.26-11.962,39.209L910.96,306.615s9.3-19.272,4.652-27.911,1.329-24.589,1.329-24.589,17.943-43.2,34.557-25.918S966.784,259.431,984.061,263.418Z" transform="translate(-375.659 -144.86)" fill="#d0cde1"/>
    <path id="Pfad_48" data-name="Pfad 48" d="M933.06,276.908s-2.658,43.861-9.968,51.836-36.551,41.2-36.551,41.2l-1.329,7.975-6.646,4.652s-6.646-15.949.665-22.595l25.253-45.19,5.981-42.532Z" transform="translate(-363.865 -161.008)" fill="#a0616a"/>
    <path id="Pfad_49" data-name="Pfad 49" d="M927.943,225.118s15.495-8.955,19.709-.822,2.221,40.7,2.221,40.7l-27.911-3.323S923.956,225.783,927.943,225.118Z" transform="translate(-379.35 -143.776)" fill="#d0cde1"/>
    <path id="Pfad_50" data-name="Pfad 50" d="M903.627,151.361c-4.911-5.888-.824-5.895-.824-5.895.339,2.113,2.519,4.738,4.725,6.925a55.786,55.786,0,0,0,4.958,4.32l-.465-1.615,4.326,2.844c1.429,13.045,8.8,11.211,8.8,11.211-6.074-3.808-4.393-10.141-3.549-13.311s6.526-2.5,6.858,6.765,6.619,11.577,6.619,11.577l1.21,5.277,1.057,4.6,2.878-5.21,1.349-2.446c9.038.9,10.095-7.589,10.095-7.589a46.512,46.512,0,0,0,5.888-3.316c14.122-9.477,9.377-20.362,5.974-25.36a21.293,21.293,0,0,0-2.213-2.778c.2.04.4.08.591.113C989,142.543,975.26,126.9,975.26,126.9l6.8,3.3L994.8,131.79l-10.294-9.31c7.377-.4,14.773,11.1,15,11.457-4.579-13.883-13.537-12.467-13.537-12.467l2.7-.778-4.718-2.153,5.483.758s-1.548-1.309-3.947-3.542-13.75-3.05-13.75-3.05c11.57-4.506,22.947,4.5,22.947,4.5-6.253-14.175-21.625-9.144-29.241-5.536l-3.721.432a31.32,31.32,0,0,0,.12-5.316c-.093-6.247-7.483,4.639-7.849,5.177,0-.08-.385-.505-5.423-2.512-5.875-2.346-3.369,10.54-3.3,10.885v.007s.06.086-.432.02c-.924-.12-3.788-.784-12.587-3.575-7.6-2.412-12.314.08-14.986,2.718a38.252,38.252,0,0,1-12.268,8.347c-1.482.611-2.811,1.116-3.675,1.369-3.236.93-4.931,3.177-8.081,10.52C890.156,146.982,903.261,151.248,903.627,151.361Z" transform="translate(-369.561 -104.855)" fill="#1e1e24"/>
    <path id="Pfad_51" data-name="Pfad 51" d="M971.132,128.173c3.117,4.439,12.128,16.714,18.674,19.777a21.3,21.3,0,0,0-2.213-2.778c.2.04.4.08.591.113l-16.621-17.126v-.013Z" transform="translate(-395.843 -112.668)" fill="#d0cde1"/>
  </g>
</svg>
